HIERARCHY
ROOT hip
{
  OFFSET 0 0 0
  CHANNELS 6 Xposition Yposition Zposition Zrotation Yrotation Xrotation
  JOINT abdomen
  {
    OFFSET 0 20.6881 -0.73152
    CHANNELS 3 Zrotation Xrotation Yrotation
    JOINT chest
    {
      OFFSET 0 11.7043 -0.48768
      CHANNELS 3 Zrotation Xrotation Yrotation
      JOINT neck
      {
        OFFSET 0 22.1894 -2.19456
        CHANNELS 3 Zrotation Xrotation Yrotation
        JOINT head
        {
          OFFSET -0.24384 7.07133 1.2192
          CHANNELS 3 Zrotation Xrotation Yrotation
          JOINT leftEye
          {
            OFFSET 4.14528 8.04674 8.04672
            CHANNELS 3 Zrotation Xrotation Yrotation
            End Site
            {
              OFFSET 1 0 0
            }
          }
          JOINT rightEye
          {
            OFFSET -3.6576 8.04674 8.04672
            CHANNELS 3 Zrotation Xrotation Yrotation
            End Site
            {
              OFFSET 1 0 0
            }
          }
        }
      }
      JOINT rCollar
      {
        OFFSET -2.68224 19.2634 -4.8768
        CHANNELS 3 Zrotation Xrotation Yrotation
        JOINT rShldr
        {
          OFFSET -8.77824 -1.95073 1.46304
          CHANNELS 3 Zrotation Xrotation Yrotation
          JOINT rForeArm
          {
            OFFSET -28.1742 -1.7115 0.48768
            CHANNELS 3 Zrotation Xrotation Yrotation
            JOINT rHand
            {
              OFFSET -22.5879 0.773209 7.07136
              CHANNELS 3 Zrotation Xrotation Yrotation
              JOINT rThumb1
              {
                OFFSET -1.2192 -0.487915 3.41376
                CHANNELS 3 Zrotation Xrotation Yrotation
                JOINT rThumb2
                {
                  OFFSET -3.37035 -0.52449 3.41376
                  CHANNELS 3 Zrotation Xrotation Yrotation
                  End Site
                  {
                    OFFSET -1.78271 -1.18214 1.43049
                  }
                }
              }
              JOINT rIndex1
              {
                OFFSET -7.75947 0.938293 5.60832
                CHANNELS 3 Zrotation Xrotation Yrotation
                JOINT rIndex2
                {
                  OFFSET -2.54057 -0.884171 1.56538
                  CHANNELS 3 Zrotation Xrotation Yrotation
                  End Site
                  {
                    OFFSET -1.62519 -0.234802 1.16502
                  }
                }
              }
              JOINT rMid1
              {
                OFFSET -8.24714 1.18213 3.41376
                CHANNELS 3 Zrotation Xrotation Yrotation
                JOINT rMid2
                {
                  OFFSET -3.10165 -0.590103 1.0647
                  CHANNELS 3 Zrotation Xrotation Yrotation
                  End Site
                  {
                    OFFSET -2.48547 -0.328903 0.83742
                  }
                }
              }
              JOINT rRing1
              {
                OFFSET -8.82822 0.546677 1.51678
                CHANNELS 3 Zrotation Xrotation Yrotation
                JOINT rRing2
                {
                  OFFSET -2.60934 -0.819778 -0.0198488
                  CHANNELS 3 Zrotation Xrotation Yrotation
                  End Site
                  {
                    OFFSET -2.33842 -0.294052 0.168128
                  }
                }
              }
              JOINT rPinky1
              {
                OFFSET -8.27202 -0.0477905 -0.4584
                CHANNELS 3 Zrotation Xrotation Yrotation
                JOINT rPinky2
                {
                  OFFSET -1.82734 -0.647385 -0.700984
                  CHANNELS 3 Zrotation Xrotation Yrotation
                  End Site
                  {
                    OFFSET -1.69225 -0.51767 -0.607171
                  }
                }
              }
            }
          }
        }
      }
      JOINT lCollar
      {
        OFFSET 2.68224 19.2634 -4.8768
        CHANNELS 3 Zrotation Xrotation Yrotation
        JOINT lShldr
        {
          OFFSET 8.77824 -1.95073 1.46304
          CHANNELS 3 Zrotation Xrotation Yrotation
          JOINT lForeArm
          {
            OFFSET 28.1742 -1.7115 0.48768
            CHANNELS 3 Zrotation Xrotation Yrotation
            JOINT lHand
            {
              OFFSET 22.5879 0.773209 7.07136
              CHANNELS 3 Zrotation Xrotation Yrotation
              JOINT lThumb1
              {
                OFFSET 1.2192 -0.487915 3.41376
                CHANNELS 3 Zrotation Xrotation Yrotation
                JOINT lThumb2
                {
                  OFFSET 3.37035 -0.52449 3.41376
                  CHANNELS 3 Zrotation Xrotation Yrotation
                  End Site
                  {
                    OFFSET 1.78271 -1.18214 1.43049
                  }
                }
              }
              JOINT lIndex1
              {
                OFFSET 7.75947 0.938293 5.60832
                CHANNELS 3 Zrotation Xrotation Yrotation
                JOINT lIndex2
                {
                  OFFSET 2.54057 -0.884171 1.56538
                  CHANNELS 3 Zrotation Xrotation Yrotation
                  End Site
                  {
                    OFFSET 1.62519 -0.234802 1.16502
                  }
                }
              }
              JOINT lMid1
              {
                OFFSET 8.24714 1.18213 3.41376
                CHANNELS 3 Zrotation Xrotation Yrotation
                JOINT lMid2
                {
                  OFFSET 3.10165 -0.590103 1.0647
                  CHANNELS 3 Zrotation Xrotation Yrotation
                  End Site
                  {
                    OFFSET 2.48547 -0.328903 0.83742
                  }
                }
              }
              JOINT lRing1
              {
                OFFSET 8.82822 0.546677 1.51678
                CHANNELS 3 Zrotation Xrotation Yrotation
                JOINT lRing2
                {
                  OFFSET 2.60934 -0.819778 -0.0198488
                  CHANNELS 3 Zrotation Xrotation Yrotation
                  End Site
                  {
                    OFFSET 2.33842 -0.294052 0.168128
                  }
                }
              }
              JOINT lPinky1
              {
                OFFSET 8.27202 -0.0477905 -0.4584
                CHANNELS 3 Zrotation Xrotation Yrotation
                JOINT lPinky2
                {
                  OFFSET 1.82734 -0.647385 -0.700984
                  CHANNELS 3 Zrotation Xrotation Yrotation
                  End Site
                  {
                    OFFSET 1.69225 -0.51767 -0.607171
                  }
                }
              }
            }
          }
        }
      }
    }
  }
  JOINT rButtock
  {
    OFFSET -8.77824 4.35084 1.2192
    CHANNELS 3 Zrotation Xrotation Yrotation
    JOINT rThigh
    {
      OFFSET 0 -1.70687 -2.19456
      CHANNELS 3 Zrotation Xrotation Yrotation
      JOINT rShin
      {
        OFFSET 0 -36.8199 0.73152
        CHANNELS 3 Zrotation Xrotation Yrotation
        JOINT rFoot
        {
          OFFSET 0.73152 -45.1104 -5.12064
          CHANNELS 3 Zrotation Xrotation Yrotation
          End Site
          {
            OFFSET -1.1221 -3.69964 12.103
          }
        }
      }
    }
  }
  JOINT lButtock
  {
    OFFSET 8.77824 4.35084 1.2192
    CHANNELS 3 Zrotation Xrotation Yrotation
    JOINT lThigh
    {
      OFFSET 0 -1.70687 -2.19456
      CHANNELS 3 Zrotation Xrotation Yrotation
      JOINT lShin
      {
        OFFSET 0 -36.8199 0.73152
        CHANNELS 3 Zrotation Xrotation Yrotation
        JOINT lFoot
        {
          OFFSET -0.73152 -45.1104 -5.12064
          CHANNELS 3 Zrotation Xrotation Yrotation
          End Site
          {
            OFFSET 1.1221 -3.69964 12.103
          }
        }
      }
    }
  }
}
MOTION
Frames:	6
Frame Time:	0.00833333
-1.67065 84.9173 -157.866 0.0 0.0 0.0 -0.140626 -0.000295012 -0.00400526 -0.038767 -0.000394544 -0.00671565 -1.65069e-15 -1.59028e-15 -4.34842e-17 -4.94787e-15 3.18055e-15 -1.30452e-16 -0.0 0.0 0.0 -0.0 0.0 0.0 -7.96496e-16 -7.76503e-19 1.98785e-16 -1.51397e-14 -8.07563e-17 0.0 -2.98575e-13 8.82604e-14 6.36111e-15 -3.40621e-12 -9.36276e-14 -1.11319e-13 -8.03919e-12 -1.04332e-14 -2.09917e-13 -1.38919e-11 -1.27222e-14 -3.66559e-13 -8.03448e-12 -1.03368e-14 -2.16278e-13 7.73091 5.47488 0.417314 -8.03925e-12 -1.09332e-14 -2.06736e-13 2.90554 0.965183 0.102902 -8.03837e-12 -1.03368e-14 -2.11507e-13 10.2786 0.731801 0.0259123 -8.04521e-12 -8.74653e-15 -2.03556e-13 2.22167 -0.733487 -0.20892 -8.93229e-16 -7.76503e-19 -1.98785e-16 -1.90619e-14 -9.93923e-17 -9.93923e-16 -2.98823e-13 -8.92543e-14 -9.54166e-15 -3.4093e-12 8.75149e-14 -7.63333e-14 -8.0423e-12 -4.479e-15 -2.06736e-13 -1.38831e-11 -6.36111e-15 -3.56222e-13 -8.04601e-12 -3.18055e-15 -2.03556e-13 -7.73091 5.47488 -0.417314 -8.04144e-12 -4.27387e-15 -2.09917e-13 -2.90554 0.965183 -0.102902 -8.05093e-12 -4.17448e-15 -2.09121e-13 -10.2786 0.731801 -0.0259123 -8.03945e-12 -2.78299e-15 -2.16278e-13 -2.22167 -0.733487 0.20892 -2.03217e-16 0.0 -3.88251e-19 0.415458 -2.89234 -0.0363696 -0.00657584 -0.313962 -0.0578458 -0.521691 3.20536 0.125419 2.03217e-16 0.0 3.88251e-19 -0.629346 -3.43714 0.0497309 0.00497784 0.672915 0.0432301 0.523137 2.76331 -0.11651
0.982126 83.5539 -159.358 -2.9028 34.9718 -0.7709 1.0204 0.356454 3.71337 0.629929 -0.321558 1.05848 2.32565 5.06508 5.7104 -5.74846 -6.99342 10.5457 -0.0 0.0 0.0 -0.0 0.0 0.0 -2.41142e-14 3.95231e-14 3.24493e-14 20.1165 6.59922 0.620772 -4.01227 -1.7833 6.30958 0.016998 -2.90727 -0.406722 1.81731e-10 -7.65849e-10 4.07311e-10 3.10245e-10 -1.32606e-09 7.06174e-10 1.81737e-10 -7.65849e-10 4.07304e-10 7.73091 5.47488 0.417314 1.81732e-10 -7.65851e-10 4.07316e-10 2.90554 0.965183 0.102902 1.81733e-10 -7.65848e-10 4.07309e-10 10.2786 0.731801 0.0259123 1.81726e-10 -7.65847e-10 4.07318e-10 2.22167 -0.733487 -0.20892 -2.4201e-14 3.95174e-14 3.21072e-14 -22.742 3.15864 -0.00373072 4.06434 -1.81664 -6.38059 -0.0049381 -1.56959 0.2203 3.22861e-10 1.02441e-10 3.60369e-10 5.55602e-10 1.77638e-10 6.25716e-10 3.22857e-10 1.02443e-10 3.60377e-10 -7.73091 5.47488 -0.417314 3.22862e-10 1.02442e-10 3.60369e-10 -2.90554 0.965183 -0.102902 3.22855e-10 1.02442e-10 3.60368e-10 -10.2786 0.731801 -0.0259123 3.22864e-10 1.02443e-10 3.60361e-10 -2.22167 -0.733487 0.20892 -2.03217e-16 0.0 -3.88251e-19 -0.14296 -3.07576 -3.52901 0.0235777 6.75659 0.10544 -1.70515 -1.13652 -10.4421 2.03217e-16 0.0 3.88251e-19 0.696842 -7.31518 -2.19865 0.00193578 8.95818 -0.0735204 0.561593 -0.639285 0.813864
0.983245 83.5432 -159.382 -2.9188 35.1425 -0.6941 2.19787 0.727547 7.64009 1.35035 -0.659516 2.18361 3.68385 10.2492 11.8913 -9.02491 -13.5796 22.1796 -0.0 0.0 0.0 -0.0 0.0 0.0 -4.9928e-14 8.1408e-14 7.98555e-14 41.2142 13.5835 1.31488 -7.84389 -3.60608 13.0222 -0.0103632 -6.01383 -0.844925 3.58405e-10 -1.6843e-09 8.84667e-10 6.11117e-10 -2.91619e-09 1.53357e-09 3.58412e-10 -1.6843e-09 8.84661e-10 7.73091 5.47488 0.417314 3.58408e-10 -1.6843e-09 8.84673e-10 2.90554 0.965183 0.102902 3.58407e-10 -1.68429e-09 8.84666e-10 10.2786 0.731801 0.0259123 3.584e-10 -1.68429e-09 8.84675e-10 2.22167 -0.733487 -0.20892 -5.00049e-14 8.13959e-14 7.95729e-14 -46.7815 6.48318 -0.00404728 7.91288 -3.65418 -13.1293 0.00299367 -3.20763 0.450772 6.56693e-10 2.30315e-10 8.16363e-10 1.12952e-09 3.99359e-10 1.41706e-09 6.56689e-10 2.30317e-10 8.16375e-10 -7.73091 5.47488 -0.417314 6.56694e-10 2.30317e-10 8.16365e-10 -2.90554 0.965183 -0.102902 6.5669e-10 2.30317e-10 8.16363e-10 -10.2786 0.731801 -0.0259123 6.56695e-10 2.30317e-10 8.16357e-10 -2.22167 -0.733487 0.20892 -2.03217e-16 0.0 -3.88251e-19 -0.756139 -3.25509 -7.21658 0.0105201 14.2305 0.285245 -4.66189 -5.3587 -21.7073 2.03217e-16 0.0 3.88251e-19 1.76381 -11.3863 -4.62654 0.0369265 17.7167 -0.20479 0.723325 -4.23485 1.80671
1.00509 83.5383 -159.407 -2.816 35.2815 -0.6021 3.20452 1.05197 11.1498 2.00313 -0.962558 3.18926 3.91396 14.5831 17.6505 -9.63729 -18.0936 33.2368 -0.0 0.0 0.0 -0.0 0.0 0.0 -7.07495e-14 1.18571e-13 9.69502e-14 59.8978 19.7881 1.96611 -10.8784 -5.09091 18.9973 -0.074055 -8.72005 -1.23285 5.61272e-10 -2.29753e-09 1.22235e-09 9.5852e-10 -3.97815e-09 2.11926e-09 5.6128e-10 -2.29753e-09 1.22235e-09 7.73091 5.47488 0.417314 5.61276e-10 -2.29753e-09 1.22236e-09 2.90554 0.965183 0.102902 5.61274e-10 -2.29752e-09 1.22235e-09 10.2786 0.731801 0.0259123 5.61268e-10 -2.29752e-09 1.22236e-09 2.22167 -0.733487 -0.20892 -7.08166e-14 1.18554e-13 9.67192e-14 -68.2249 9.47591 -0.0113298 11.0001 -5.18012 -19.2136 0.0214994 -4.70849 0.66289 9.84668e-10 3.07332e-10 1.08152e-09 1.69457e-09 5.32927e-10 1.87786e-09 9.84664e-10 3.07335e-10 1.08154e-09 -7.73091 5.47488 -0.417314 9.84669e-10 3.07335e-10 1.08153e-09 -2.90554 0.965183 -0.102902 9.84667e-10 3.07334e-10 1.08152e-09 -10.2786 0.731801 -0.0259123 9.8467e-10 3.07334e-10 1.08152e-09 -2.22167 -0.733487 0.20892 -2.03217e-16 0.0 -3.88251e-19 -1.32593 -3.4021 -10.5179 -0.043642 20.8971 0.460078 -8.66668 -8.40423 -31.9536 2.03217e-16 0.0 3.88251e-19 2.40958 -14.9836 -6.8764 0.105834 25.5283 -0.33725 0.971801 -7.43653 2.69689
1.0118 83.533 -159.446 -2.7956 35.3956 -0.5514 3.8802 1.27665 13.6154 2.46183 -1.17956 3.89587 3.49509 17.373 21.8602 -8.92267 -20.1832 41.3176 -0.0 0.0 0.0 -0.0 0.0 0.0 -7.90899e-14 1.43929e-13 3.8266e-14 72.8858 24.0531 2.40709 -12.7451 -5.98506 23.0616 -0.135237 -10.4273 -1.48202 8.29622e-10 -2.14771e-09 1.21086e-09 1.42225e-09 -3.71968e-09 2.10066e-09 8.29631e-10 -2.14771e-09 1.21085e-09 7.73091 5.47488 0.417314 8.29627e-10 -2.14772e-09 1.21087e-09 2.90554 0.965183 0.102902 8.29625e-10 -2.14771e-09 1.21086e-09 10.2786 0.731801 0.0259123 8.29618e-10 -2.14771e-09 1.21087e-09 2.22167 -0.733487 -0.20892 -7.91478e-14 1.43911e-13 3.80673e-14 -83.177 11.6391 -0.0362172 13.0038 -6.178 -23.5703 0.0423986 -5.86664 0.827425 1.298e-09 2.57205e-10 8.69589e-10 2.23747e-09 4.46114e-10 1.51232e-09 1.298e-09 2.57209e-10 8.69608e-10 -7.73091 5.47488 -0.417314 1.298e-09 2.57209e-10 8.69595e-10 -2.90554 0.965183 -0.102902 1.298e-09 2.57209e-10 8.69592e-10 -10.2786 0.731801 -0.0259123 1.298e-09 2.57208e-10 8.69586e-10 -2.22167 -0.733487 0.20892 -2.03217e-16 0.0 -3.88251e-19 -1.74192 -3.49862 -12.8509 -0.108451 25.546 0.595168 -12.1238 -9.94166 -39.2207 2.03217e-16 0.0 3.88251e-19 2.67031 -17.4754 -8.52317 0.179216 30.973 -0.443844 1.19856 -9.66202 3.30467
1.02326 83.5285 -159.484 -2.7679 35.5365 -0.5055 4.13326 1.37063 14.6202 2.6369 -1.27726 4.18405 3.13427 18.4185 23.5824 -8.37095 -20.7916 44.5908 -0.0 0.0 0.0 -0.0 0.0 0.0 -6.61384e-14 1.52826e-13 -1.76079e-13 78.0706 25.6113 2.47531 -13.3145 -6.22061 24.4018 -0.151631 -10.7214 -1.52584 1.29378e-09 -5.82704e-10 5.63284e-10 2.23002e-09 -1.0125e-09 9.81657e-10 1.29379e-09 -5.82704e-10 5.63276e-10 7.73091 5.47488 0.417314 1.29379e-09 -5.8271e-10 5.63293e-10 2.90554 0.965183 0.102902 1.29379e-09 -5.827e-10 5.63283e-10 10.2786 0.731801 0.0259123 1.29378e-09 -5.82701e-10 5.63291e-10 2.22167 -0.733487 -0.20892 -6.61861e-14 1.52812e-13 -1.76277e-13 -89.0429 12.6504 -0.0884539 13.8386 -6.61234 -25.4747 0.0562343 -6.5633 0.926731 1.68063e-09 -3.67343e-11 -2.49707e-10 2.90617e-09 -6.32707e-11 -4.24338e-10 1.68063e-09 -3.67304e-11 -2.49688e-10 -7.73091 5.47488 -0.417314 1.68063e-09 -3.67291e-11 -2.497e-10 -2.90554 0.965183 -0.102902 1.68063e-09 -3.67293e-11 -2.49703e-10 -10.2786 0.731801 -0.0259123 1.68063e-09 -3.67303e-11 -2.49709e-10 -2.22167 -0.733487 0.20892 -2.03217e-16 0.0 -3.88251e-19 -1.92831 -3.54419 -13.8326 -0.14093 27.3719 0.652671 -13.6093 -10.3886 -42.0971 2.03217e-16 0.0 3.88251e-19 2.6982 -18.4768 -9.2263 0.215086 33.1027 -0.490181 1.28719 -10.525 3.49654
